<?xml version="1.0" encoding="UTF-8" standalone="no"?>
<!DOCTYPE svg PUBLIC "-//W3C//DTD SVG 1.1//EN"
 "http://www.w3.org/Graphics/SVG/1.1/DTD/svg11.dtd">
<!-- Generated by graphviz version 2.40.1 (20161225.0304)
 -->
<!-- Title: G Pages: 1 -->
<svg width="924pt" height="220pt"
 viewBox="0.00 0.00 923.71 220.30" xmlns="http://www.w3.org/2000/svg" xmlns:xlink="http://www.w3.org/1999/xlink">
<g id="graph0" class="graph" transform="scale(1 1) rotate(0) translate(21.6 198.6986)">
<title>G</title>
<polygon fill="#111111" stroke="transparent" points="-21.6,21.6 -21.6,-198.6986 902.1098,-198.6986 902.1098,21.6 -21.6,21.6"/>
<!-- actions/index.js -->
<g id="node1" class="node">
<title>actions/index.js</title>
<path fill="none" stroke="#c6c5fe" d="M688.7963,-126.1482C688.7963,-126.1482 593.4938,-126.1482 593.4938,-126.1482 589.4608,-126.1482 585.4279,-122.1152 585.4279,-118.0823 585.4279,-118.0823 585.4279,-110.0164 585.4279,-110.0164 585.4279,-105.9834 589.4608,-101.9505 593.4938,-101.9505 593.4938,-101.9505 688.7963,-101.9505 688.7963,-101.9505 692.8292,-101.9505 696.8622,-105.9834 696.8622,-110.0164 696.8622,-110.0164 696.8622,-118.0823 696.8622,-118.0823 696.8622,-122.1152 692.8292,-126.1482 688.7963,-126.1482"/>
<text text-anchor="middle" x="641.145" y="-110.8986" font-family="Arial" font-size="14.00" fill="#c6c5fe">actions/index.js</text>
</g>
<!-- actions/types.js -->
<g id="node2" class="node">
<title>actions/types.js</title>
<path fill="none" stroke="#cfffac" d="M872.2992,-147.1482C872.2992,-147.1482 777.0103,-147.1482 777.0103,-147.1482 772.9774,-147.1482 768.9444,-143.1152 768.9444,-139.0823 768.9444,-139.0823 768.9444,-131.0164 768.9444,-131.0164 768.9444,-126.9834 772.9774,-122.9505 777.0103,-122.9505 777.0103,-122.9505 872.2992,-122.9505 872.2992,-122.9505 876.3322,-122.9505 880.3651,-126.9834 880.3651,-131.0164 880.3651,-131.0164 880.3651,-139.0823 880.3651,-139.0823 880.3651,-143.1152 876.3322,-147.1482 872.2992,-147.1482"/>
<text text-anchor="middle" x="824.6548" y="-131.8986" font-family="Arial" font-size="14.00" fill="#cfffac">actions/types.js</text>
</g>
<!-- actions/index.js&#45;&gt;actions/types.js -->
<g id="edge1" class="edge">
<title>actions/index.js&#45;&gt;actions/types.js</title>
<path fill="none" stroke="#757575" d="M697.2011,-120.4641C716.6778,-122.6929 738.697,-125.2127 758.8866,-127.5231"/>
<polygon fill="#757575" stroke="#757575" points="758.6088,-131.0141 768.9419,-128.6738 759.4047,-124.0595 758.6088,-131.0141"/>
</g>
<!-- components/ConvertPanel.js -->
<g id="node3" class="node">
<title>components/ConvertPanel.js</title>
<path fill="none" stroke="#c6c5fe" d="M502.0435,-108.1482C502.0435,-108.1482 323.2046,-108.1482 323.2046,-108.1482 319.1716,-108.1482 315.1387,-104.1152 315.1387,-100.0823 315.1387,-100.0823 315.1387,-92.0164 315.1387,-92.0164 315.1387,-87.9834 319.1716,-83.9505 323.2046,-83.9505 323.2046,-83.9505 502.0435,-83.9505 502.0435,-83.9505 506.0764,-83.9505 510.1094,-87.9834 510.1094,-92.0164 510.1094,-92.0164 510.1094,-100.0823 510.1094,-100.0823 510.1094,-104.1152 506.0764,-108.1482 502.0435,-108.1482"/>
<text text-anchor="middle" x="412.624" y="-92.8986" font-family="Arial" font-size="14.00" fill="#c6c5fe">components/ConvertPanel.js</text>
</g>
<!-- components/ConvertPanel.js&#45;&gt;actions/index.js -->
<g id="edge2" class="edge">
<title>components/ConvertPanel.js&#45;&gt;actions/index.js</title>
<path fill="none" stroke="#757575" d="M510.2004,-103.7351C532.0975,-105.4599 554.8301,-107.2505 575.0875,-108.8461"/>
<polygon fill="#757575" stroke="#757575" points="574.8831,-112.3408 585.1271,-109.6369 575.4328,-105.3624 574.8831,-112.3408"/>
</g>
<!-- components/VideoList.js -->
<g id="node4" class="node">
<title>components/VideoList.js</title>
<path fill="none" stroke="#cfffac" d="M488.5569,-66.1482C488.5569,-66.1482 336.6911,-66.1482 336.6911,-66.1482 332.6582,-66.1482 328.6252,-62.1152 328.6252,-58.0823 328.6252,-58.0823 328.6252,-50.0164 328.6252,-50.0164 328.6252,-45.9834 332.6582,-41.9505 336.6911,-41.9505 336.6911,-41.9505 488.5569,-41.9505 488.5569,-41.9505 492.5899,-41.9505 496.6228,-45.9834 496.6228,-50.0164 496.6228,-50.0164 496.6228,-58.0823 496.6228,-58.0823 496.6228,-62.1152 492.5899,-66.1482 488.5569,-66.1482"/>
<text text-anchor="middle" x="412.624" y="-50.8986" font-family="Arial" font-size="14.00" fill="#cfffac">components/VideoList.js</text>
</g>
<!-- index.js -->
<g id="node5" class="node">
<title>index.js</title>
<path fill="none" stroke="#c6c5fe" d="M55.639,-87.1482C55.639,-87.1482 7.8298,-87.1482 7.8298,-87.1482 3.7968,-87.1482 -.2361,-83.1152 -.2361,-79.0823 -.2361,-79.0823 -.2361,-71.0164 -.2361,-71.0164 -.2361,-66.9834 3.7968,-62.9505 7.8298,-62.9505 7.8298,-62.9505 55.639,-62.9505 55.639,-62.9505 59.6719,-62.9505 63.7049,-66.9834 63.7049,-71.0164 63.7049,-71.0164 63.7049,-79.0823 63.7049,-79.0823 63.7049,-83.1152 59.6719,-87.1482 55.639,-87.1482"/>
<text text-anchor="middle" x="31.7344" y="-71.8986" font-family="Arial" font-size="14.00" fill="#c6c5fe">index.js</text>
</g>
<!-- reducers/index.js -->
<g id="node6" class="node">
<title>reducers/index.js</title>
<path fill="none" stroke="#c6c5fe" d="M240.3747,-157.1482C240.3747,-157.1482 134.8519,-157.1482 134.8519,-157.1482 130.819,-157.1482 126.786,-153.1152 126.786,-149.0823 126.786,-149.0823 126.786,-141.0164 126.786,-141.0164 126.786,-136.9834 130.819,-132.9505 134.8519,-132.9505 134.8519,-132.9505 240.3747,-132.9505 240.3747,-132.9505 244.4076,-132.9505 248.4406,-136.9834 248.4406,-141.0164 248.4406,-141.0164 248.4406,-149.0823 248.4406,-149.0823 248.4406,-153.1152 244.4076,-157.1482 240.3747,-157.1482"/>
<text text-anchor="middle" x="187.6133" y="-141.8986" font-family="Arial" font-size="14.00" fill="#c6c5fe">reducers/index.js</text>
</g>
<!-- index.js&#45;&gt;reducers/index.js -->
<g id="edge3" class="edge">
<title>index.js&#45;&gt;reducers/index.js</title>
<path fill="none" stroke="#757575" d="M58.8864,-87.2424C84.5912,-98.7855 123.3501,-116.1909 151.621,-128.8864"/>
<polygon fill="#757575" stroke="#757575" points="150.2162,-132.0922 160.7724,-132.996 153.0838,-125.7065 150.2162,-132.0922"/>
</g>
<!-- screens/ConvertScreen.js -->
<g id="node7" class="node">
<title>screens/ConvertScreen.js</title>
<path fill="none" stroke="#c6c5fe" d="M267.8367,-87.1482C267.8367,-87.1482 107.3899,-87.1482 107.3899,-87.1482 103.3569,-87.1482 99.324,-83.1152 99.324,-79.0823 99.324,-79.0823 99.324,-71.0164 99.324,-71.0164 99.324,-66.9834 103.3569,-62.9505 107.3899,-62.9505 107.3899,-62.9505 267.8367,-62.9505 267.8367,-62.9505 271.8696,-62.9505 275.9026,-66.9834 275.9026,-71.0164 275.9026,-71.0164 275.9026,-79.0823 275.9026,-79.0823 275.9026,-83.1152 271.8696,-87.1482 267.8367,-87.1482"/>
<text text-anchor="middle" x="187.6133" y="-71.8986" font-family="Arial" font-size="14.00" fill="#c6c5fe">screens/ConvertScreen.js</text>
</g>
<!-- index.js&#45;&gt;screens/ConvertScreen.js -->
<g id="edge4" class="edge">
<title>index.js&#45;&gt;screens/ConvertScreen.js</title>
<path fill="none" stroke="#757575" d="M63.6549,-75.0493C71.4389,-75.0493 80.177,-75.0493 89.3167,-75.0493"/>
<polygon fill="#757575" stroke="#757575" points="89.3658,-78.5494 99.3658,-75.0493 89.3657,-71.5494 89.3658,-78.5494"/>
</g>
<!-- screens/VideoSelectScreen.js -->
<g id="node8" class="node">
<title>screens/VideoSelectScreen.js</title>
<path fill="none" stroke="#c6c5fe" d="M505.2907,-24.1482C505.2907,-24.1482 319.9573,-24.1482 319.9573,-24.1482 315.9244,-24.1482 311.8914,-20.1152 311.8914,-16.0823 311.8914,-16.0823 311.8914,-8.0164 311.8914,-8.0164 311.8914,-3.9834 315.9244,.0495 319.9573,.0495 319.9573,.0495 505.2907,.0495 505.2907,.0495 509.3237,.0495 513.3566,-3.9834 513.3566,-8.0164 513.3566,-8.0164 513.3566,-16.0823 513.3566,-16.0823 513.3566,-20.1152 509.3237,-24.1482 505.2907,-24.1482"/>
<text text-anchor="middle" x="412.624" y="-8.8986" font-family="Arial" font-size="14.00" fill="#c6c5fe">screens/VideoSelectScreen.js</text>
</g>
<!-- index.js&#45;&gt;screens/VideoSelectScreen.js -->
<g id="edge5" class="edge">
<title>index.js&#45;&gt;screens/VideoSelectScreen.js</title>
<path fill="none" stroke="#757575" d="M63.4838,-64.0027C74.7395,-60.4084 87.566,-56.6733 99.4688,-54.0493 165.805,-39.4255 241.2409,-29.1218 301.4503,-22.3806"/>
<polygon fill="#757575" stroke="#757575" points="302.186,-25.8208 311.7423,-21.2463 301.419,-18.8629 302.186,-25.8208"/>
</g>
<!-- reducers/videos_reducer.js -->
<g id="node9" class="node">
<title>reducers/videos_reducer.js</title>
<path fill="none" stroke="#c6c5fe" d="M724.889,-177.1482C724.889,-177.1482 557.4011,-177.1482 557.4011,-177.1482 553.3681,-177.1482 549.3352,-173.1152 549.3352,-169.0823 549.3352,-169.0823 549.3352,-161.0164 549.3352,-161.0164 549.3352,-156.9834 553.3681,-152.9505 557.4011,-152.9505 557.4011,-152.9505 724.889,-152.9505 724.889,-152.9505 728.9219,-152.9505 732.9549,-156.9834 732.9549,-161.0164 732.9549,-161.0164 732.9549,-169.0823 732.9549,-169.0823 732.9549,-173.1152 728.9219,-177.1482 724.889,-177.1482"/>
<text text-anchor="middle" x="641.145" y="-161.8986" font-family="Arial" font-size="14.00" fill="#c6c5fe">reducers/videos_reducer.js</text>
</g>
<!-- reducers/index.js&#45;&gt;reducers/videos_reducer.js -->
<g id="edge6" class="edge">
<title>reducers/index.js&#45;&gt;reducers/videos_reducer.js</title>
<path fill="none" stroke="#757575" d="M248.7786,-147.7466C323.1627,-151.0268 449.8171,-156.6121 539.0712,-160.548"/>
<polygon fill="#757575" stroke="#757575" points="539.0744,-164.0515 549.2189,-160.9955 539.3828,-157.0583 539.0744,-164.0515"/>
</g>
<!-- screens/ConvertScreen.js&#45;&gt;actions/index.js -->
<g id="edge8" class="edge">
<title>screens/ConvertScreen.js&#45;&gt;actions/index.js</title>
<path fill="none" stroke="#757575" d="M215.0498,-87.2298C239.7734,-97.4982 277.4079,-111.3962 311.7578,-117.0493 402.1973,-131.9335 508.5004,-127.0049 575.3554,-121.2377"/>
<polygon fill="#757575" stroke="#757575" points="575.6836,-124.7224 585.332,-120.3455 575.06,-117.7503 575.6836,-124.7224"/>
</g>
<!-- screens/ConvertScreen.js&#45;&gt;components/ConvertPanel.js -->
<g id="edge9" class="edge">
<title>screens/ConvertScreen.js&#45;&gt;components/ConvertPanel.js</title>
<path fill="none" stroke="#757575" d="M275.8977,-83.2888C285.4011,-84.1757 295.1466,-85.0853 304.8451,-85.9904"/>
<polygon fill="#757575" stroke="#757575" points="304.6409,-89.4865 314.9229,-86.931 305.2915,-82.5168 304.6409,-89.4865"/>
</g>
<!-- screens/ConvertScreen.js&#45;&gt;components/VideoList.js -->
<g id="edge10" class="edge">
<title>screens/ConvertScreen.js&#45;&gt;components/VideoList.js</title>
<path fill="none" stroke="#757575" d="M275.8977,-66.8098C289.8671,-65.5061 304.3596,-64.1535 318.4572,-62.8378"/>
<polygon fill="#757575" stroke="#757575" points="319.0082,-66.3017 328.6396,-61.8875 318.3576,-59.332 319.0082,-66.3017"/>
</g>
<!-- screens/ConvertScreen.js&#45;&gt;screens/VideoSelectScreen.js -->
<g id="edge11" class="edge">
<title>screens/ConvertScreen.js&#45;&gt;screens/VideoSelectScreen.js</title>
<path fill="none" stroke="#757575" d="M230.0345,-62.969C244.6274,-58.5723 261.0028,-53.3688 275.7578,-48.0493 292.0638,-42.1707 295.1988,-38.1721 311.7578,-33.0493 319.4721,-30.6628 327.6023,-28.4649 335.7619,-26.4633"/>
<polygon fill="#757575" stroke="#757575" points="336.7733,-29.821 345.7034,-24.1198 335.1671,-23.0077 336.7733,-29.821"/>
</g>
<!-- screens/VideoSelectScreen.js&#45;&gt;actions/index.js -->
<g id="edge12" class="edge">
<title>screens/VideoSelectScreen.js&#45;&gt;actions/index.js</title>
<path fill="none" stroke="#757575" d="M486.276,-24.1418C495.5917,-26.6109 504.8711,-29.5532 513.4902,-33.0493 552.871,-49.0229 593.501,-77.1918 618.0475,-95.7402"/>
<polygon fill="#757575" stroke="#757575" points="615.9659,-98.5547 626.0307,-101.8641 620.2265,-93.0006 615.9659,-98.5547"/>
</g>
<!-- reducers/videos_reducer.js&#45;&gt;actions/types.js -->
<g id="edge7" class="edge">
<title>reducers/videos_reducer.js&#45;&gt;actions/types.js</title>
<path fill="none" stroke="#757575" d="M714.9922,-152.9768C729.4179,-150.6185 744.458,-148.1598 758.6104,-145.8462"/>
<polygon fill="#757575" stroke="#757575" points="759.4329,-149.2583 768.7372,-144.1907 758.3035,-142.35 759.4329,-149.2583"/>
</g>
</g>
</svg>
